<svg xmlns="http://www.w3.org/2000/svg" xmlns:xlink="http://www.w3.org/1999/xlink" width="500" zoomAndPan="magnify" viewBox="0 0 375 374.999991" height="500" preserveAspectRatio="xMidYMid meet" version="1.0"><defs><clipPath id="57bb65f790"><path d="M 187.5 0 C 83.945312 0 0 83.945312 0 187.5 C 0 291.054688 83.945312 375 187.5 375 C 291.054688 375 375 291.054688 375 187.5 C 375 83.945312 291.054688 0 187.5 0 Z M 187.5 0 " clip-rule="nonzero"/></clipPath><clipPath id="36fbea593f"><path d="M 91.6875 83 L 148 83 L 148 292 L 91.6875 292 Z M 91.6875 83 " clip-rule="nonzero"/></clipPath><clipPath id="7d269208fa"><path d="M 159.515625 39.453125 L 215.835938 39.453125 L 215.835938 335.015625 L 159.515625 335.015625 Z M 159.515625 39.453125 " clip-rule="nonzero"/></clipPath><clipPath id="2cdb134029"><path d="M 227.34375 83.054688 L 282.628906 83.054688 L 282.628906 291.992188 L 227.34375 291.992188 Z M 227.34375 83.054688 " clip-rule="nonzero"/></clipPath></defs><g clip-path="url(#57bb65f790)"><rect x="-37.5" width="450" fill="#06e35e" y="-37.499999" height="449.999989" fill-opacity="1"/></g><g clip-path="url(#36fbea593f)"><path fill="#ffffff" d="M 108.371094 264.929688 L 147.589844 291.792969 L 147.589844 232.34375 L 131.1875 236.59375 L 147.589844 209.648438 L 147.589844 141.6875 C 147.589844 129.027344 141.347656 117.183594 130.90625 110.027344 L 91.6875 83.164062 L 91.6875 233.269531 C 91.6875 245.929688 97.929688 257.773438 108.371094 264.929688 " fill-opacity="1" fill-rule="nonzero"/></g><g clip-path="url(#7d269208fa)"><path fill="#ffffff" d="M 159.558594 212.046875 L 174.496094 236.59375 L 159.558594 232.722656 L 159.558594 276.980469 C 159.558594 289.636719 165.800781 301.476562 176.242188 308.632812 L 215.460938 335.503906 L 215.460938 145.898438 L 200.230469 149.847656 L 215.460938 124.820312 L 215.460938 97.976562 C 215.460938 85.320312 209.222656 73.476562 198.777344 66.324219 L 159.558594 39.453125 L 159.558594 212.046875 " fill-opacity="1" fill-rule="nonzero"/></g><g clip-path="url(#2cdb134029)"><path fill="#ffffff" d="M 227.433594 83.164062 L 227.433594 123.386719 L 243.53125 149.847656 L 227.433594 145.671875 L 227.433594 233.269531 C 227.433594 245.929688 233.675781 257.773438 244.117188 264.929688 L 283.335938 291.792969 L 283.335938 141.6875 C 283.335938 129.027344 277.089844 117.183594 266.648438 110.027344 L 227.433594 83.164062 " fill-opacity="1" fill-rule="nonzero"/></g></svg>