<svg xmlns="http://www.w3.org/2000/svg" xmlns:xlink="http://www.w3.org/1999/xlink" width="700" zoomAndPan="magnify" viewBox="0 0 525 165.000002" height="220" preserveAspectRatio="xMidYMid meet" version="1.0"><defs><g/><clipPath id="7c6c306ece"><path d="M 1.582031 0 L 523.417969 0 L 523.417969 164.007812 L 1.582031 164.007812 Z M 1.582031 0 " clip-rule="nonzero"/></clipPath><clipPath id="c148c8a67a"><path d="M 1.582031 0.289062 L 165.011719 0.289062 L 165.011719 163.71875 L 1.582031 163.71875 Z M 1.582031 0.289062 " clip-rule="nonzero"/></clipPath><clipPath id="33cad95d5c"><path d="M 83.296875 0.289062 C 38.167969 0.289062 1.582031 36.871094 1.582031 82.003906 C 1.582031 127.132812 38.167969 163.71875 83.296875 163.71875 C 128.425781 163.71875 165.011719 127.132812 165.011719 82.003906 C 165.011719 36.871094 128.425781 0.289062 83.296875 0.289062 Z M 83.296875 0.289062 " clip-rule="nonzero"/></clipPath><clipPath id="94905e2ead"><path d="M 41.539062 36 L 66 36 L 66 128 L 41.539062 128 Z M 41.539062 36 " clip-rule="nonzero"/></clipPath><clipPath id="fa7d459469"><path d="M 71.101562 17.480469 L 95.648438 17.480469 L 95.648438 146.292969 L 71.101562 146.292969 Z M 71.101562 17.480469 " clip-rule="nonzero"/></clipPath><clipPath id="fd1fec84b6"><path d="M 100.660156 36.484375 L 124.753906 36.484375 L 124.753906 127.542969 L 100.660156 127.542969 Z M 100.660156 36.484375 " clip-rule="nonzero"/></clipPath></defs><g clip-path="url(#7c6c306ece)"><path fill="#ffffff" d="M 1.582031 0 L 523.417969 0 L 523.417969 164.007812 L 1.582031 164.007812 Z M 1.582031 0 " fill-opacity="1" fill-rule="nonzero"/><path fill="#ffffff" d="M 1.582031 0 L 523.417969 0 L 523.417969 164.007812 L 1.582031 164.007812 Z M 1.582031 0 " fill-opacity="1" fill-rule="nonzero"/></g><g fill="#06e35e" fill-opacity="1"><g transform="translate(201.257005, 97.65814)"><g><path d="M 21.390625 -49.359375 C 24.015625 -49.359375 26.578125 -48.976562 29.078125 -48.21875 C 31.585938 -47.457031 33.453125 -46.703125 34.671875 -45.953125 L 36.4375 -44.78125 L 31.96875 -35.96875 C 31.613281 -36.195312 31.125 -36.5 30.5 -36.875 C 29.875 -37.25 28.695312 -37.75 26.96875 -38.375 C 25.25 -39 23.644531 -39.3125 22.15625 -39.3125 C 20.3125 -39.3125 18.890625 -38.921875 17.890625 -38.140625 C 16.890625 -37.359375 16.390625 -36.300781 16.390625 -34.96875 C 16.390625 -34.300781 16.625 -33.679688 17.09375 -33.109375 C 17.570312 -32.546875 18.378906 -31.941406 19.515625 -31.296875 C 20.648438 -30.648438 21.644531 -30.128906 22.5 -29.734375 C 23.363281 -29.335938 24.695312 -28.75 26.5 -27.96875 C 29.632812 -26.632812 32.304688 -24.820312 34.515625 -22.53125 C 36.734375 -20.238281 37.84375 -17.644531 37.84375 -14.75 C 37.84375 -11.96875 37.34375 -9.535156 36.34375 -7.453125 C 35.34375 -5.378906 33.972656 -3.753906 32.234375 -2.578125 C 30.492188 -1.410156 28.5625 -0.546875 26.4375 0.015625 C 24.320312 0.585938 22.03125 0.875 19.5625 0.875 C 17.445312 0.875 15.367188 0.660156 13.328125 0.234375 C 11.296875 -0.191406 9.59375 -0.726562 8.21875 -1.375 C 6.851562 -2.019531 5.617188 -2.65625 4.515625 -3.28125 C 3.421875 -3.914062 2.617188 -4.445312 2.109375 -4.875 L 1.359375 -5.53125 L 6.875 -14.8125 C 7.34375 -14.414062 7.988281 -13.914062 8.8125 -13.3125 C 9.632812 -12.707031 11.09375 -11.894531 13.1875 -10.875 C 15.289062 -9.851562 17.144531 -9.34375 18.75 -9.34375 C 23.40625 -9.34375 25.734375 -10.929688 25.734375 -14.109375 C 25.734375 -14.773438 25.566406 -15.390625 25.234375 -15.953125 C 24.898438 -16.523438 24.3125 -17.09375 23.46875 -17.65625 C 22.632812 -18.226562 21.894531 -18.679688 21.25 -19.015625 C 20.601562 -19.347656 19.539062 -19.851562 18.0625 -20.53125 C 16.59375 -21.21875 15.507812 -21.738281 14.8125 -22.09375 C 11.875 -23.539062 9.597656 -25.351562 7.984375 -27.53125 C 6.378906 -29.707031 5.578125 -32.046875 5.578125 -34.546875 C 5.578125 -38.898438 7.179688 -42.457031 10.390625 -45.21875 C 13.609375 -47.976562 17.273438 -49.359375 21.390625 -49.359375 Z M 21.390625 -49.359375 "/></g></g></g><g fill="#06e35e" fill-opacity="1"><g transform="translate(240.747036, 97.65814)"><g><path d="M 3.53125 -48.484375 L 21.21875 -48.484375 C 26.15625 -48.484375 30.148438 -47.207031 33.203125 -44.65625 C 36.253906 -42.113281 37.78125 -38.410156 37.78125 -33.546875 C 37.78125 -28.691406 36.234375 -24.882812 33.140625 -22.125 C 30.046875 -19.363281 26.070312 -17.984375 21.21875 -17.984375 L 14.578125 -17.984375 L 14.578125 0 L 3.53125 0 Z M 14.578125 -26.796875 L 17.6875 -26.796875 C 20.15625 -26.796875 22.179688 -27.296875 23.765625 -28.296875 C 25.359375 -29.296875 26.15625 -30.929688 26.15625 -33.203125 C 26.15625 -35.515625 25.359375 -37.171875 23.765625 -38.171875 C 22.179688 -39.171875 20.15625 -39.671875 17.6875 -39.671875 L 14.578125 -39.671875 Z M 14.578125 -26.796875 "/></g></g></g><g fill="#06e35e" fill-opacity="1"><g transform="translate(279.884472, 97.65814)"><g><path d="M 31.265625 -48.484375 L 31.265625 -38.78125 L 14.578125 -38.78125 L 14.578125 -29.140625 L 30.5625 -29.140625 L 30.5625 -19.453125 L 14.578125 -19.453125 L 14.578125 -9.703125 L 31.265625 -9.703125 L 31.265625 0 L 3.53125 0 L 3.53125 -48.484375 Z M 31.265625 -48.484375 "/></g></g></g><g fill="#06e35e" fill-opacity="1"><g transform="translate(313.968122, 97.65814)"><g><path d="M 14.578125 -30.09375 L 14.578125 0 L 3.53125 0 L 3.53125 -48.484375 L 14.578125 -48.484375 L 33.84375 -18.390625 L 33.96875 -18.390625 L 33.96875 -48.484375 L 45.015625 -48.484375 L 45.015625 0 L 33.96875 0 L 14.6875 -30.09375 Z M 14.578125 -30.09375 "/></g></g></g><g fill="#06e35e" fill-opacity="1"><g transform="translate(362.507951, 97.65814)"><g><path d="M 3.53125 -48.484375 L 17.578125 -48.484375 C 24.304688 -48.484375 30.0625 -46.179688 34.84375 -41.578125 C 39.625 -36.972656 42.015625 -31.203125 42.015625 -24.265625 C 42.015625 -17.296875 39.632812 -11.507812 34.875 -6.90625 C 30.113281 -2.300781 24.347656 0 17.578125 0 L 3.53125 0 Z M 14.578125 -9.875 L 16.28125 -9.875 C 20.3125 -9.875 23.609375 -11.234375 26.171875 -13.953125 C 28.742188 -16.679688 30.050781 -20.101562 30.09375 -24.21875 C 30.09375 -28.320312 28.804688 -31.742188 26.234375 -34.484375 C 23.671875 -37.234375 20.351562 -38.609375 16.28125 -38.609375 L 14.578125 -38.609375 Z M 14.578125 -9.875 "/></g></g></g><g fill="#06e35e" fill-opacity="1"><g transform="translate(405.876454, 97.65814)"><g><path d="M 14.578125 -48.484375 L 14.578125 0 L 3.53125 0 L 3.53125 -48.484375 Z M 14.578125 -48.484375 "/></g></g></g><g fill="#06e35e" fill-opacity="1"><g transform="translate(423.976049, 97.65814)"><g><path d="M 31.5625 -48.484375 L 31.5625 -38.78125 L 14.578125 -38.78125 L 14.578125 -29.140625 L 30.265625 -29.140625 L 30.265625 -19.453125 L 14.578125 -19.453125 L 14.578125 0 L 3.53125 0 L 3.53125 -48.484375 Z M 31.5625 -48.484375 "/></g></g></g><g fill="#06e35e" fill-opacity="1"><g transform="translate(457.295755, 97.65814)"><g><path d="M -1.765625 -48.484375 L 11.515625 -48.484375 L 21.625 -32.96875 L 31.734375 -48.484375 L 45.015625 -48.484375 L 27.15625 -21.75 L 27.15625 0 L 16.109375 0 L 16.109375 -21.75 Z M -1.765625 -48.484375 "/></g></g></g><g clip-path="url(#c148c8a67a)"><g clip-path="url(#33cad95d5c)"><path fill="#06e35e" d="M 1.582031 0.289062 L 165.011719 0.289062 L 165.011719 163.71875 L 1.582031 163.71875 Z M 1.582031 0.289062 " fill-opacity="1" fill-rule="nonzero"/></g></g><g clip-path="url(#94905e2ead)"><path fill="#ffffff" d="M 48.8125 115.746094 L 65.902344 127.457031 L 65.902344 101.546875 L 58.753906 103.398438 L 65.902344 91.65625 L 65.902344 62.035156 C 65.902344 56.519531 63.183594 51.359375 58.632812 48.238281 L 41.539062 36.53125 L 41.539062 101.949219 C 41.539062 107.46875 44.261719 112.628906 48.8125 115.746094 " fill-opacity="1" fill-rule="nonzero"/></g><g clip-path="url(#fa7d459469)"><path fill="#ffffff" d="M 71.121094 92.703125 L 77.628906 103.398438 L 71.121094 101.710938 L 71.121094 121 C 71.121094 126.515625 73.839844 131.675781 78.390625 134.792969 L 95.484375 146.507812 L 95.484375 63.871094 L 88.84375 65.59375 L 95.484375 54.6875 L 95.484375 42.988281 C 95.484375 37.472656 92.761719 32.308594 88.210938 29.191406 L 71.121094 17.480469 L 71.121094 92.703125 " fill-opacity="1" fill-rule="nonzero"/></g><g clip-path="url(#fd1fec84b6)"><path fill="#ffffff" d="M 100.699219 36.53125 L 100.699219 54.0625 L 107.714844 65.59375 L 100.699219 63.773438 L 100.699219 101.949219 C 100.699219 107.46875 103.421875 112.628906 107.972656 115.746094 L 125.0625 127.457031 L 125.0625 62.035156 C 125.0625 56.519531 122.34375 51.359375 117.789062 48.238281 L 100.699219 36.53125 " fill-opacity="1" fill-rule="nonzero"/></g></svg>