<svg width="700" height="220" viewBox="0 0 700 220" fill="none" xmlns="http://www.w3.org/2000/svg">
<path d="M296.863 64.3983C300.363 64.3983 303.78 64.9088 307.113 65.9192C310.457 66.9348 312.947 67.94 314.572 68.94L316.926 70.5025L310.968 82.2525C310.494 81.9504 309.843 81.5442 309.009 81.0442C308.176 80.5442 306.603 79.8775 304.301 79.0442C302.009 78.2108 299.869 77.7942 297.884 77.7942C295.426 77.7942 293.53 78.315 292.197 79.3567C290.863 80.3983 290.197 81.8098 290.197 83.5858C290.197 84.4765 290.509 85.3046 291.134 86.065C291.77 86.815 292.848 87.6223 294.363 88.4817C295.874 89.3463 297.202 90.039 298.343 90.565C299.494 91.0963 301.27 91.8775 303.676 92.9192C307.853 94.7004 311.416 97.1171 314.363 100.169C317.322 103.226 318.801 106.685 318.801 110.544C318.801 114.253 318.134 117.497 316.801 120.273C315.468 123.039 313.64 125.206 311.322 126.773C308.999 128.331 306.426 129.482 303.593 130.232C300.77 130.992 297.718 131.378 294.426 131.378C291.603 131.378 288.832 131.091 286.113 130.523C283.405 129.956 281.134 129.242 279.301 128.378C277.478 127.518 275.832 126.669 274.363 125.836C272.905 124.992 271.832 124.284 271.155 123.711L270.155 122.836L277.509 110.461C278.134 110.992 278.994 111.659 280.093 112.461C281.186 113.268 283.134 114.351 285.926 115.711C288.728 117.075 291.202 117.753 293.343 117.753C299.551 117.753 302.655 115.638 302.655 111.398C302.655 110.513 302.431 109.69 301.988 108.94C301.541 108.18 300.759 107.419 299.634 106.669C298.52 105.909 297.535 105.305 296.676 104.857C295.811 104.414 294.395 103.742 292.426 102.836C290.468 101.919 289.02 101.226 288.093 100.753C284.176 98.8254 281.14 96.4088 278.988 93.5025C276.848 90.6015 275.78 87.4817 275.78 84.1483C275.78 78.3463 277.916 73.6015 282.197 69.9192C286.488 66.2421 291.374 64.3983 296.863 64.3983Z" fill="#06E35E"/>
<path d="M325.704 65.565H349.288C355.871 65.565 361.194 67.2681 365.267 70.6692C369.335 74.0598 371.371 78.9973 371.371 85.4817C371.371 91.9556 369.309 97.0338 365.184 100.711C361.059 104.393 355.756 106.232 349.288 106.232H340.434V130.211H325.704V65.565ZM340.434 94.4817H344.579C347.871 94.4817 350.569 93.815 352.684 92.4817C354.809 91.1484 355.871 88.9713 355.871 85.94C355.871 82.8567 354.809 80.6484 352.684 79.315C350.569 77.9817 347.871 77.315 344.579 77.315H340.434V94.4817Z" fill="#06E35E"/>
<path d="M414.867 65.565V78.5025H392.617V91.3567H413.929V104.273H392.617V117.273H414.867V130.211H377.888V65.565H414.867Z" fill="#06E35E"/>
<path d="M438.062 90.0859V130.211H423.333V65.565H438.062L463.749 105.69H463.916V65.565H478.645V130.211H463.916L438.208 90.0859H438.062Z" fill="#06E35E"/>
<path d="M488.052 65.565H506.781C515.75 65.565 523.427 68.6379 529.802 74.7734C536.177 80.914 539.365 88.6067 539.365 97.8567C539.365 107.148 536.188 114.867 529.844 121.003C523.495 127.143 515.807 130.211 506.781 130.211H488.052V65.565ZM502.781 117.044H505.052C510.427 117.044 514.823 115.232 518.24 111.607C521.667 107.971 523.412 103.409 523.469 97.9192C523.469 92.4504 521.75 87.8879 518.323 84.2317C514.906 80.565 510.479 78.7317 505.052 78.7317H502.781V117.044Z" fill="#06E35E"/>
<path d="M560.606 65.565V130.211H545.877V65.565H560.606Z" fill="#06E35E"/>
<path d="M607.385 65.565V78.5025H584.739V91.3567H605.656V104.273H584.739V130.211H570.01V65.565H607.385Z" fill="#06E35E"/>
<path d="M607.374 65.565H625.082L638.561 86.2525L652.04 65.565H669.749L645.936 101.211V130.211H631.207V101.211L607.374 65.565Z" fill="#06E35E"/>
<path fill-rule="evenodd" clip-rule="evenodd" d="M110.955 217.91C171.129 217.91 219.91 169.129 219.91 108.955C219.91 48.7808 171.129 0 110.955 0C50.7808 0 2 48.7808 2 108.955C2 169.129 50.7808 217.91 110.955 217.91ZM87.4844 169.63L64.6979 154.016C58.6302 149.859 55 142.979 55 135.625V48.4011L77.7917 64.0104C83.8594 68.1667 87.4844 75.0521 87.4844 82.4063V121.896L77.9531 137.552L87.4844 135.083V169.63ZM94.4376 123.292L103.12 137.552L94.4376 135.307V161.021C94.4376 168.375 98.0678 175.255 104.135 179.411L126.922 195.026V84.8542L118.073 87.151L126.922 72.6042V57.0104C126.922 49.651 123.297 42.7708 117.229 38.6146L94.4376 23V123.292ZM133.875 71.7708V48.401L156.667 64.0104C162.734 68.1666 166.359 75.052 166.359 82.4062V169.63L143.573 154.016C137.505 149.859 133.875 142.979 133.875 135.625V84.7239L143.234 87.151L133.875 71.7708Z" fill="#06E35E"/>
</svg>
