<svg xmlns="http://www.w3.org/2000/svg" xmlns:xlink="http://www.w3.org/1999/xlink" width="700" zoomAndPan="magnify" viewBox="0 0 525 187.499995" height="250" preserveAspectRatio="xMidYMid meet" version="1.0"><defs><g/><clipPath id="3a2cae401f"><path d="M 0.699219 11.507812 L 164.683594 11.507812 L 164.683594 175.492188 L 0.699219 175.492188 Z M 0.699219 11.507812 " clip-rule="nonzero"/></clipPath><clipPath id="af8fb5a78f"><path d="M 82.691406 11.507812 C 37.40625 11.507812 0.699219 48.21875 0.699219 93.5 C 0.699219 138.785156 37.40625 175.492188 82.691406 175.492188 C 127.972656 175.492188 164.683594 138.785156 164.683594 93.5 C 164.683594 48.21875 127.972656 11.507812 82.691406 11.507812 Z M 82.691406 11.507812 " clip-rule="nonzero"/></clipPath><clipPath id="2a1053d7ac"><path d="M 40.792969 47 L 66 47 L 66 140 L 40.792969 140 Z M 40.792969 47 " clip-rule="nonzero"/></clipPath><clipPath id="407b2ab764"><path d="M 70.453125 28.761719 L 95 28.761719 L 95 158.007812 L 70.453125 158.007812 Z M 70.453125 28.761719 " clip-rule="nonzero"/></clipPath><clipPath id="f12c402d22"><path d="M 100.113281 47.828125 L 124.289062 47.828125 L 124.289062 139.195312 L 100.113281 139.195312 Z M 100.113281 47.828125 " clip-rule="nonzero"/></clipPath></defs><g fill="#06e35e" fill-opacity="1"><g transform="translate(201.103001, 108.027137)"><g><path d="M 21.46875 -49.53125 C 24.101562 -49.53125 26.675781 -49.144531 29.1875 -48.375 C 31.707031 -47.613281 33.578125 -46.859375 34.796875 -46.109375 L 36.5625 -44.9375 L 32.078125 -36.09375 C 31.722656 -36.320312 31.226562 -36.625 30.59375 -37 C 29.96875 -37.375 28.789062 -37.875 27.0625 -38.5 C 25.332031 -39.132812 23.722656 -39.453125 22.234375 -39.453125 C 20.378906 -39.453125 18.953125 -39.054688 17.953125 -38.265625 C 16.953125 -37.484375 16.453125 -36.425781 16.453125 -35.09375 C 16.453125 -34.414062 16.6875 -33.789062 17.15625 -33.21875 C 17.632812 -32.65625 18.441406 -32.046875 19.578125 -31.390625 C 20.710938 -30.742188 21.710938 -30.222656 22.578125 -29.828125 C 23.441406 -29.441406 24.78125 -28.851562 26.59375 -28.0625 C 29.738281 -26.726562 32.421875 -24.910156 34.640625 -22.609375 C 36.859375 -20.316406 37.96875 -17.710938 37.96875 -14.796875 C 37.96875 -12.003906 37.46875 -9.566406 36.46875 -7.484375 C 35.46875 -5.398438 34.09375 -3.769531 32.34375 -2.59375 C 30.59375 -1.414062 28.65625 -0.539062 26.53125 0.03125 C 24.414062 0.601562 22.117188 0.890625 19.640625 0.890625 C 17.515625 0.890625 15.425781 0.671875 13.375 0.234375 C 11.332031 -0.191406 9.625 -0.726562 8.25 -1.375 C 6.875 -2.03125 5.632812 -2.671875 4.53125 -3.296875 C 3.4375 -3.929688 2.632812 -4.460938 2.125 -4.890625 L 1.359375 -5.546875 L 6.90625 -14.859375 C 7.375 -14.460938 8.019531 -13.957031 8.84375 -13.34375 C 9.664062 -12.738281 11.128906 -11.925781 13.234375 -10.90625 C 15.335938 -9.882812 17.195312 -9.375 18.8125 -9.375 C 23.488281 -9.375 25.828125 -10.96875 25.828125 -14.15625 C 25.828125 -14.820312 25.660156 -15.4375 25.328125 -16 C 24.992188 -16.570312 24.40625 -17.144531 23.5625 -17.71875 C 22.71875 -18.289062 21.96875 -18.742188 21.3125 -19.078125 C 20.664062 -19.410156 19.601562 -19.921875 18.125 -20.609375 C 16.65625 -21.296875 15.566406 -21.816406 14.859375 -22.171875 C 11.910156 -23.628906 9.628906 -25.445312 8.015625 -27.625 C 6.410156 -29.8125 5.609375 -32.160156 5.609375 -34.671875 C 5.609375 -39.035156 7.21875 -42.601562 10.4375 -45.375 C 13.65625 -48.144531 17.332031 -49.53125 21.46875 -49.53125 Z M 21.46875 -49.53125 "/></g></g></g><g fill="#06e35e" fill-opacity="1"><g transform="translate(240.712061, 108.027137)"><g><path d="M 3.53125 -48.65625 L 21.28125 -48.65625 C 26.238281 -48.65625 30.25 -47.375 33.3125 -44.8125 C 36.382812 -42.257812 37.921875 -38.546875 37.921875 -33.671875 C 37.921875 -28.796875 36.363281 -24.972656 33.25 -22.203125 C 30.144531 -19.429688 26.15625 -18.046875 21.28125 -18.046875 L 14.625 -18.046875 L 14.625 0 L 3.53125 0 Z M 14.625 -26.890625 L 17.75 -26.890625 C 20.226562 -26.890625 22.257812 -27.390625 23.84375 -28.390625 C 25.4375 -29.390625 26.234375 -31.03125 26.234375 -33.3125 C 26.234375 -35.632812 25.4375 -37.296875 23.84375 -38.296875 C 22.257812 -39.296875 20.226562 -39.796875 17.75 -39.796875 L 14.625 -39.796875 Z M 14.625 -26.890625 "/></g></g></g><g fill="#06e35e" fill-opacity="1"><g transform="translate(279.967449, 108.027137)"><g><path d="M 31.375 -48.65625 L 31.375 -38.921875 L 14.625 -38.921875 L 14.625 -29.25 L 30.65625 -29.25 L 30.65625 -19.515625 L 14.625 -19.515625 L 14.625 -9.734375 L 31.375 -9.734375 L 31.375 0 L 3.53125 0 L 3.53125 -48.65625 Z M 31.375 -48.65625 "/></g></g></g><g fill="#06e35e" fill-opacity="1"><g transform="translate(314.153834, 108.027137)"><g><path d="M 14.625 -30.1875 L 14.625 0 L 3.53125 0 L 3.53125 -48.65625 L 14.625 -48.65625 L 33.96875 -18.453125 L 34.078125 -18.453125 L 34.078125 -48.65625 L 45.171875 -48.65625 L 45.171875 0 L 34.078125 0 L 14.75 -30.1875 Z M 14.625 -30.1875 "/></g></g></g><g fill="#06e35e" fill-opacity="1"><g transform="translate(362.839961, 108.027137)"><g><path d="M 3.53125 -48.65625 L 17.625 -48.65625 C 24.394531 -48.65625 30.175781 -46.34375 34.96875 -41.71875 C 39.757812 -37.101562 42.15625 -31.316406 42.15625 -24.359375 C 42.15625 -17.359375 39.765625 -11.546875 34.984375 -6.921875 C 30.210938 -2.304688 24.425781 0 17.625 0 L 3.53125 0 Z M 14.625 -9.90625 L 16.328125 -9.90625 C 20.378906 -9.90625 23.691406 -11.269531 26.265625 -14 C 28.847656 -16.738281 30.15625 -20.171875 30.1875 -24.296875 C 30.1875 -28.421875 28.898438 -31.859375 26.328125 -34.609375 C 23.753906 -37.367188 20.421875 -38.75 16.328125 -38.75 L 14.625 -38.75 Z M 14.625 -9.90625 "/></g></g></g><g fill="#06e35e" fill-opacity="1"><g transform="translate(406.339184, 108.027137)"><g><path d="M 14.625 -48.65625 L 14.625 0 L 3.53125 0 L 3.53125 -48.65625 Z M 14.625 -48.65625 "/></g></g></g><g fill="#06e35e" fill-opacity="1"><g transform="translate(424.493341, 108.027137)"><g><path d="M 31.671875 -48.65625 L 31.671875 -38.921875 L 14.625 -38.921875 L 14.625 -29.25 L 30.375 -29.25 L 30.375 -19.515625 L 14.625 -19.515625 L 14.625 0 L 3.53125 0 L 3.53125 -48.65625 Z M 31.671875 -48.65625 "/></g></g></g><g fill="#06e35e" fill-opacity="1"><g transform="translate(457.913471, 108.027137)"><g><path d="M -1.765625 -48.65625 L 11.5625 -48.65625 L 21.703125 -33.078125 L 31.84375 -48.65625 L 45.171875 -48.65625 L 27.25 -21.8125 L 27.25 0 L 16.15625 0 L 16.15625 -21.8125 Z M -1.765625 -48.65625 "/></g></g></g><g clip-path="url(#3a2cae401f)"><g clip-path="url(#af8fb5a78f)"><path fill="#06e35e" d="M 0.699219 11.507812 L 164.683594 11.507812 L 164.683594 175.492188 L 0.699219 175.492188 Z M 0.699219 11.507812 " fill-opacity="1" fill-rule="nonzero"/></g></g><g clip-path="url(#2a1053d7ac)"><path fill="#ffffff" d="M 48.089844 127.359375 L 65.238281 139.105469 L 65.238281 113.109375 L 58.066406 114.96875 L 65.238281 103.183594 L 65.238281 73.464844 C 65.238281 67.929688 62.507812 62.75 57.941406 59.625 L 40.792969 47.875 L 40.792969 113.515625 C 40.792969 119.050781 43.523438 124.230469 48.089844 127.359375 " fill-opacity="1" fill-rule="nonzero"/></g><g clip-path="url(#407b2ab764)"><path fill="#ffffff" d="M 70.472656 104.234375 L 77.003906 114.96875 L 70.472656 113.277344 L 70.472656 132.628906 C 70.472656 138.164062 73.203125 143.34375 77.769531 146.472656 L 94.917969 158.222656 L 94.917969 75.308594 L 88.257812 77.035156 L 94.917969 66.09375 L 94.917969 54.355469 C 94.917969 48.816406 92.1875 43.640625 87.621094 40.511719 L 70.472656 28.761719 L 70.472656 104.234375 " fill-opacity="1" fill-rule="nonzero"/></g><g clip-path="url(#f12c402d22)"><path fill="#ffffff" d="M 100.152344 47.875 L 100.152344 65.464844 L 107.191406 77.035156 L 100.152344 75.210938 L 100.152344 113.515625 C 100.152344 119.050781 102.882812 124.230469 107.449219 127.359375 L 124.597656 139.105469 L 124.597656 73.464844 C 124.597656 67.929688 121.867188 62.75 117.300781 59.625 L 100.152344 47.875 " fill-opacity="1" fill-rule="nonzero"/></g></svg>